<svg xmlns="http://www.w3.org/2000/svg" width="720" height="300" viewBox="0 0 720 300">
  <rect width="720" height="300" fill="#f7f7f5"/>
  <text x="24" y="38" font-family="Arial, sans-serif" font-size="20" font-weight="700" fill="#111">WAM Architecture Studio</text>
  <text x="24" y="62" font-family="Arial, sans-serif" font-size="12" fill="#555">Color moodboard from screenshot pixels and explicit color evidence</text>
  <rect x="24" y="92" width="88" height="56" rx="6" fill="#ffffff"/><text x="24" y="168" font-size="11" fill="#111">#ffffff</text><rect x="136" y="92" width="88" height="56" rx="6" fill="#604020"/><text x="136" y="168" font-size="11" fill="#111">#604020</text><rect x="248" y="92" width="88" height="56" rx="6" fill="#f0e0c0"/><text x="248" y="168" font-size="11" fill="#111">#f0e0c0</text><rect x="360" y="92" width="88" height="56" rx="6" fill="#805020"/><text x="360" y="168" font-size="11" fill="#111">#805020</text><rect x="472" y="92" width="88" height="56" rx="6" fill="#b08040"/><text x="472" y="168" font-size="11" fill="#111">#b08040</text><rect x="584" y="92" width="88" height="56" rx="6" fill="#000000"/><text x="584" y="168" font-size="11" fill="#111">#000000</text><rect x="24" y="196" width="88" height="56" rx="6" fill="#c0a060"/><text x="24" y="272" font-size="11" fill="#111">#c0a060</text><rect x="136" y="196" width="88" height="56" rx="6" fill="#705040"/><text x="136" y="272" font-size="11" fill="#111">#705040</text><rect x="248" y="196" width="88" height="56" rx="6" fill="#e0c080"/><text x="248" y="272" font-size="11" fill="#111">#e0c080</text><rect x="360" y="196" width="88" height="56" rx="6" fill="#fff0e0"/><text x="360" y="272" font-size="11" fill="#111">#fff0e0</text>
</svg>
