<svg xmlns="http://www.w3.org/2000/svg" width="720" height="300" viewBox="0 0 720 300">
  <rect width="720" height="300" fill="#f7f7f5"/>
  <text x="24" y="38" font-family="Arial, sans-serif" font-size="20" font-weight="700" fill="#111">Better Stack Observability</text>
  <text x="24" y="62" font-family="Arial, sans-serif" font-size="12" fill="#555">Color moodboard from screenshot pixels and explicit color evidence</text>
  <rect x="24" y="92" width="88" height="56" rx="6" fill="#101010"/><text x="24" y="168" font-size="11" fill="#111">#101010</text><rect x="136" y="92" width="88" height="56" rx="6" fill="#404050"/><text x="136" y="168" font-size="11" fill="#111">#404050</text><rect x="248" y="92" width="88" height="56" rx="6" fill="#202030"/><text x="248" y="168" font-size="11" fill="#111">#202030</text><rect x="360" y="92" width="88" height="56" rx="6" fill="#90a0c0"/><text x="360" y="168" font-size="11" fill="#111">#90a0c0</text><rect x="472" y="92" width="88" height="56" rx="6" fill="#607080"/><text x="472" y="168" font-size="11" fill="#111">#607080</text><rect x="584" y="92" width="88" height="56" rx="6" fill="#8090a0"/><text x="584" y="168" font-size="11" fill="#111">#8090a0</text><rect x="24" y="196" width="88" height="56" rx="6" fill="#ffffff"/><text x="24" y="272" font-size="11" fill="#111">#ffffff</text><rect x="136" y="196" width="88" height="56" rx="6" fill="#6060d0"/><text x="136" y="272" font-size="11" fill="#111">#6060d0</text><rect x="248" y="196" width="88" height="56" rx="6" fill="#505070"/><text x="248" y="272" font-size="11" fill="#111">#505070</text><rect x="360" y="196" width="88" height="56" rx="6" fill="#d0d0f0"/><text x="360" y="272" font-size="11" fill="#111">#d0d0f0</text><rect x="472" y="196" width="88" height="56" rx="6" fill="#939db8"/><text x="472" y="272" font-size="11" fill="#111">#939db8</text><rect x="584" y="196" width="88" height="56" rx="6" fill="#0b0c14"/><text x="584" y="272" font-size="11" fill="#111">#0b0c14</text>
</svg>
