<svg xmlns="http://www.w3.org/2000/svg" width="720" height="300" viewBox="0 0 720 300">
  <rect width="720" height="300" fill="#f7f7f5"/>
  <text x="24" y="38" font-family="Arial, sans-serif" font-size="20" font-weight="700" fill="#111">Glyphs App Design Tool</text>
  <text x="24" y="62" font-family="Arial, sans-serif" font-size="12" fill="#555">Color moodboard from screenshot pixels and explicit color evidence</text>
  <rect x="24" y="92" width="88" height="56" rx="6" fill="#303030"/><text x="24" y="168" font-size="11" fill="#111">#303030</text><rect x="136" y="92" width="88" height="56" rx="6" fill="#ffffff"/><text x="136" y="168" font-size="11" fill="#111">#ffffff</text><rect x="248" y="92" width="88" height="56" rx="6" fill="#d0e0e0"/><text x="248" y="168" font-size="11" fill="#111">#d0e0e0</text><rect x="360" y="92" width="88" height="56" rx="6" fill="#80f030"/><text x="360" y="168" font-size="11" fill="#111">#80f030</text><rect x="472" y="92" width="88" height="56" rx="6" fill="#000000"/><text x="472" y="168" font-size="11" fill="#111">#000000</text><rect x="584" y="92" width="88" height="56" rx="6" fill="#c0c0c0"/><text x="584" y="168" font-size="11" fill="#111">#c0c0c0</text><rect x="24" y="196" width="88" height="56" rx="6" fill="#506050"/><text x="24" y="272" font-size="11" fill="#111">#506050</text><rect x="136" y="196" width="88" height="56" rx="6" fill="#707070"/><text x="136" y="272" font-size="11" fill="#111">#707070</text><rect x="248" y="196" width="88" height="56" rx="6" fill="#509030"/><text x="248" y="272" font-size="11" fill="#111">#509030</text><rect x="360" y="196" width="88" height="56" rx="6" fill="#a0b0a0"/><text x="360" y="272" font-size="11" fill="#111">#a0b0a0</text><rect x="472" y="196" width="88" height="56" rx="6" fill="#2b372a"/><text x="472" y="272" font-size="11" fill="#111">#2b372a</text><rect x="584" y="196" width="88" height="56" rx="6" fill="#87f32e"/><text x="584" y="272" font-size="11" fill="#111">#87f32e</text>
</svg>
